<svg width="287" height="294" viewBox="0 0 287 294" fill="none" xmlns="http://www.w3.org/2000/svg">
<mask id="mask0_41_51" style="mask-type:alpha" maskUnits="userSpaceOnUse" x="0" y="0" width="287" height="295">
<mask id="path-1-outside-1_41_51" maskUnits="userSpaceOnUse" x="7.10722e-05" y="-1.25015e-05" width="287" height="295" fill="black">
<rect fill="white" x="7.10722e-05" y="-1.25015e-05" width="287" height="295"/>
<path d="M214.943 147.47L286 156.679L214.382 156.607L283.755 174.88L212.698 165.671L279.336 192.721L209.892 174.448L272.743 209.843L206.105 182.721L264.115 225.957L201.265 190.491L253.523 240.777L195.583 197.613L241.247 254.23L189.059 203.872L227.429 265.956L181.764 209.267L212.277 275.812L173.908 213.727L196.074 283.653L165.561 217.109L179.029 289.337L156.863 219.411L161.422 292.79L148.024 220.562L143.535 293.941L139.046 220.562L125.648 292.79L130.137 219.411L108.042 289.337L121.439 217.109L90.9262 283.653L113.092 213.727L74.7226 275.812L105.236 209.267L59.5713 265.956L98.0108 203.872L45.7526 254.23L91.4873 197.613L33.4772 240.777L85.7354 190.491L22.9554 225.957L80.9656 182.721L14.3276 209.843L77.1076 174.448L7.73393 192.721L74.3719 165.671L3.24462 174.88L72.6884 156.607L0.999986 156.679L72.1273 147.47L0.999987 138.262L72.6884 138.262L3.24462 119.989L74.3719 129.27L7.73394 102.22L77.1076 120.493L14.3276 85.0982L80.9656 112.22L22.9554 68.9836L85.7354 104.45L33.4772 54.0919L91.4873 97.328L45.7526 40.711L98.0108 91.0692L59.5713 28.9848L105.236 85.6737L74.7226 19.1289L113.092 81.2134L90.9262 11.2875L121.439 77.8322L108.042 5.60417L130.137 75.5301L125.648 2.15104L139.046 74.3791L143.535 0.999994L148.024 74.3791L161.422 2.15104L156.863 75.5301L179.029 5.60417L165.561 77.8322L196.074 11.2875L173.908 81.2134L212.277 19.129L181.764 85.6737L227.429 28.9848L189.059 91.0692L241.247 40.711L195.583 97.328L253.523 54.0919L201.265 104.45L264.115 68.9836L206.105 112.22L272.743 85.0982L209.892 120.493L279.336 102.22L212.698 129.27L283.755 119.989L214.382 138.262L286 138.262L214.943 147.47Z"/>
</mask>
<path d="M214.943 147.47L286 156.679L214.382 156.607L283.755 174.88L212.698 165.671L279.336 192.721L209.892 174.448L272.743 209.843L206.105 182.721L264.115 225.957L201.265 190.491L253.523 240.777L195.583 197.613L241.247 254.23L189.059 203.872L227.429 265.956L181.764 209.267L212.277 275.812L173.908 213.727L196.074 283.653L165.561 217.109L179.029 289.337L156.863 219.411L161.422 292.79L148.024 220.562L143.535 293.941L139.046 220.562L125.648 292.79L130.137 219.411L108.042 289.337L121.439 217.109L90.9262 283.653L113.092 213.727L74.7226 275.812L105.236 209.267L59.5713 265.956L98.0108 203.872L45.7526 254.23L91.4873 197.613L33.4772 240.777L85.7354 190.491L22.9554 225.957L80.9656 182.721L14.3276 209.843L77.1076 174.448L7.73393 192.721L74.3719 165.671L3.24462 174.88L72.6884 156.607L0.999986 156.679L72.1273 147.47L0.999987 138.262L72.6884 138.262L3.24462 119.989L74.3719 129.27L7.73394 102.22L77.1076 120.493L14.3276 85.0982L80.9656 112.22L22.9554 68.9836L85.7354 104.45L33.4772 54.0919L91.4873 97.328L45.7526 40.711L98.0108 91.0692L59.5713 28.9848L105.236 85.6737L74.7226 19.1289L113.092 81.2134L90.9262 11.2875L121.439 77.8322L108.042 5.60417L130.137 75.5301L125.648 2.15104L139.046 74.3791L143.535 0.999994L148.024 74.3791L161.422 2.15104L156.863 75.5301L179.029 5.60417L165.561 77.8322L196.074 11.2875L173.908 81.2134L212.277 19.129L181.764 85.6737L227.429 28.9848L189.059 91.0692L241.247 40.711L195.583 97.328L253.523 54.0919L201.265 104.45L264.115 68.9836L206.105 112.22L272.743 85.0982L209.892 120.493L279.336 102.22L212.698 129.27L283.755 119.989L214.382 138.262L286 138.262L214.943 147.47Z" stroke="black" stroke-width="2" stroke-miterlimit="10" mask="url(#path-1-outside-1_41_51)"/>
</mask>
<g mask="url(#mask0_41_51)">
<rect x="302.765" y="-371.986" width="519.666" height="309.125" rx="45" transform="rotate(90 302.765 -371.986)" fill="black"/>
</g>
<path d="M85.548 38.9761L75.9073 57.111L66.1892 38.9761L48.534 29.0555L66.1892 19.1349L75.9073 1L85.548 19.1349L103.281 29.0555L85.548 38.9761Z" fill="#B9FF66"/>
<path d="M173.242 87.1382L156.014 119.544L138.649 87.1382L107.1 69.4108L138.649 51.6833L156.014 19.2775L173.242 51.6833L204.929 69.4108L173.242 87.1382Z" fill="#191A23"/>
</svg>
