<svg width="351" height="306" viewBox="0 0 351 306" fill="none" xmlns="http://www.w3.org/2000/svg">
<g clip-path="url(#clip0_30_2104)">
<path d="M183.561 256.819L193.95 253.74L190.918 264.22L193.95 274.671L183.561 271.622L173.143 274.671L176.204 264.22L173.143 253.74L183.561 256.819Z" fill="black" stroke="white" stroke-miterlimit="10"/>
</g>
<g clip-path="url(#clip1_30_2104)">
<path d="M73.7476 205.147L92.3257 215.33L73.7476 225.595L63.5845 244.243L53.4214 225.595L34.8433 215.33L53.4214 205.147L63.5845 186.417L73.7476 205.147Z" fill="black" stroke="white" stroke-miterlimit="10"/>
</g>
<path d="M333.054 231.069C331.966 233.052 329.931 234.506 326.955 235.414C323.977 236.322 320.099 236.669 315.413 236.466C306.041 236.059 293.546 233.459 278.789 228.915C249.283 219.83 210.835 203.009 170.449 180.599C130.062 158.189 95.4087 134.448 72.0299 114.188C60.3374 104.055 51.4857 94.8107 46.1445 87.0535C43.4734 83.1741 41.6967 79.6901 40.8718 76.6711C40.0476 73.6546 40.1843 71.1474 41.2719 69.1638C42.3596 67.1802 44.3947 65.7264 47.3707 64.8186C50.3492 63.91 54.2264 63.5633 58.9132 63.7667C68.2848 64.1734 80.7797 66.7736 95.5369 71.3173C125.043 80.4022 163.491 97.2239 203.877 119.634C244.264 142.043 278.917 165.784 302.296 186.044C313.988 196.177 322.84 205.422 328.181 213.179C330.852 217.058 332.629 220.542 333.454 223.561C334.278 226.578 334.142 229.085 333.054 231.069Z" stroke="black"/>
<path d="M321.113 252.844C320.026 254.827 317.99 256.281 315.014 257.189C312.036 258.098 308.159 258.444 303.472 258.241C294.1 257.834 281.605 255.234 266.848 250.69C237.342 241.605 198.895 224.784 158.508 202.374C118.122 179.964 83.468 156.223 60.0892 135.963C48.3967 125.83 39.5451 116.586 34.2039 108.829C31.5327 104.949 29.756 101.465 28.9311 98.4462C28.1069 95.4298 28.2436 92.9226 29.3312 90.939C30.4189 88.9554 32.4541 87.5016 35.43 86.5938C38.4085 85.6852 42.2857 85.3385 46.9725 85.5419C56.3441 85.9485 68.839 88.5488 83.5962 93.0924C113.103 102.177 151.55 118.999 191.936 141.409C232.323 163.819 266.976 187.559 290.355 207.819C302.048 217.952 310.899 227.197 316.241 234.954C318.912 238.833 320.688 242.317 321.513 245.336C322.338 248.353 322.201 250.86 321.113 252.844Z" stroke="black"/>
<path d="M309.174 274.619C308.086 276.603 306.051 278.057 303.075 278.964C300.096 279.873 296.219 280.22 291.532 280.016C282.161 279.61 269.666 277.009 254.909 272.466C225.402 263.381 186.955 246.559 146.569 224.149C106.182 201.74 71.5286 177.999 48.1498 157.739C36.4572 147.606 27.6056 138.361 22.2644 130.604C19.5933 126.725 17.8165 123.241 16.9916 120.222C16.1674 117.205 16.3041 114.698 17.3918 112.714C18.4794 110.731 20.5146 109.277 23.4906 108.369C26.469 107.461 30.3463 107.114 35.0331 107.317C44.4047 107.724 56.8995 110.324 71.6568 114.868C101.163 123.953 139.61 140.775 179.997 163.184C220.383 185.594 255.037 209.335 278.416 229.595C290.108 239.728 298.96 248.972 304.301 256.73C306.972 260.609 308.749 264.093 309.574 267.112C310.398 270.128 310.261 272.636 309.174 274.619Z" stroke="black"/>
<ellipse cx="77.6151" cy="62.0472" rx="9.14859" ry="9.20317" fill="#B9FF66"/>
<ellipse cx="248.487" cy="258.282" rx="5.90232" ry="5.93753" fill="#B9FF66"/>
<ellipse cx="48.1036" cy="38.2971" rx="13.8704" ry="13.9532" fill="black"/>
<path d="M180.594 227.758C176.873 229.037 172.621 226.502 171.142 222.106L148.124 154.263L161.574 149.634L184.615 217.571C186.094 221.92 184.292 226.478 180.594 227.758Z" fill="black"/>
<path d="M178.583 228.595C177.497 228.595 176.388 228.339 175.325 227.804C173.175 226.734 171.465 224.734 170.633 222.269L147.615 154.425C147.523 154.17 147.661 153.867 147.939 153.774L161.389 149.146C161.528 149.099 161.666 149.099 161.782 149.169C161.897 149.239 161.99 149.332 162.036 149.472L185.077 217.408C186.626 222.013 184.685 226.874 180.733 228.246C180.062 228.479 179.323 228.595 178.583 228.595ZM148.771 154.588L171.627 221.943C172.367 224.153 173.892 225.967 175.787 226.897C177.312 227.641 178.953 227.781 180.432 227.269C183.853 226.083 185.517 221.804 184.13 217.733L161.25 150.286L148.771 154.588Z" fill="black"/>
<path d="M159.193 91.0709L115.676 122.306L98.7358 140.006L92.0799 151.844L92.0568 151.937C90.7395 153.984 91.5022 158.705 93.975 163.519C96.4016 168.264 99.822 171.566 102.226 171.753L102.156 171.799L114.936 173.195L138.856 169.357L189.63 151.076L252.745 161.961L253.184 161.984C237.33 159.007 215.93 137.68 200.376 107.514C184.846 77.372 179.9 47.5787 186.718 32.8797H186.695L159.54 90.3267L159.193 91.0709Z" fill="#B9FF66"/>
<path d="M263.673 160.671C279.272 152.519 276.255 115.561 256.936 78.1242C237.617 40.6868 209.311 16.9465 193.713 25.0987C178.115 33.2509 181.131 70.2085 200.45 107.646C219.769 145.083 248.075 168.823 263.673 160.671Z" fill="white"/>
<path d="M256.813 162.798C250.019 162.798 241.837 158.984 233.032 151.565C221.038 141.471 209.274 125.911 199.915 107.724C185.748 80.1863 179.901 51.9512 185.031 35.787C186.742 30.3912 189.607 26.6234 193.513 24.5999C201.278 20.5996 212.209 23.9952 224.319 34.1822C236.314 44.2761 248.077 59.8356 257.437 78.0233C271.627 105.561 277.474 133.796 272.32 149.96C270.61 155.356 267.744 159.124 263.839 161.147C261.736 162.263 259.378 162.798 256.813 162.798ZM200.585 23.9952C198.204 23.9952 195.986 24.4837 193.998 25.5303C190.324 27.4142 187.643 30.9959 186.025 36.1359C180.964 52.0675 186.788 80.0002 200.839 107.305C219.975 144.448 248.031 168.217 263.4 160.286C267.074 158.403 269.755 154.821 271.373 149.681C276.434 133.749 270.61 105.816 256.559 78.5117C239.896 46.1833 216.508 23.9952 200.585 23.9952Z" fill="black"/>
<path d="M256.813 162.798C250.018 162.798 241.837 158.984 233.032 151.565C221.038 141.471 209.274 125.911 199.914 107.724C185.748 80.1863 179.901 51.9513 185.031 35.787C186.741 30.3912 189.607 26.6234 193.513 24.6C198.713 21.9021 205.507 22.5766 213.157 26.5304C220.483 30.3214 228.41 37.043 236.129 45.9507C236.314 46.1601 236.291 46.4857 236.083 46.6717C235.875 46.8578 235.551 46.8345 235.366 46.6252C219.697 28.5306 203.843 20.4368 193.998 25.5303C190.323 27.4142 187.643 30.9959 186.025 36.1359C180.964 52.0676 186.788 80.0003 200.839 107.305C217.478 139.61 240.89 161.822 256.79 161.822C259.17 161.822 261.389 161.333 263.376 160.286C267.051 158.403 269.732 154.821 271.349 149.681C276.411 133.749 270.587 105.817 256.535 78.5118C252.352 70.3715 247.638 62.7197 242.577 55.7656C242.415 55.533 242.461 55.2074 242.692 55.0446C242.923 54.8818 243.247 54.9283 243.409 55.1609C248.516 62.1615 253.231 69.8598 257.46 78.0466C271.627 105.561 277.474 133.796 272.32 149.96C270.61 155.356 267.744 159.124 263.838 161.147C261.735 162.263 259.378 162.798 256.813 162.798Z" fill="black"/>
<path d="M228.281 113.014C231.895 111.126 231.2 102.571 226.729 93.9072C222.258 85.2432 215.704 79.7507 212.091 81.6393C208.477 83.5278 209.172 92.0823 213.643 100.746C218.114 109.41 224.668 114.903 228.281 113.014Z" fill="#B9FF66"/>
<path d="M226.7 113.91C222.725 113.91 217.178 108.747 213.18 100.956C209.852 94.49 208.489 87.8382 209.714 84.0007C210.153 82.6517 210.869 81.6981 211.863 81.1865C215.792 79.163 222.517 84.6752 227.185 93.7225C230.513 100.188 231.877 106.84 230.652 110.677C230.213 112.026 229.496 112.98 228.503 113.492C227.948 113.771 227.347 113.91 226.7 113.91ZM213.666 81.7679C213.18 81.7679 212.718 81.861 212.325 82.0703C211.563 82.4657 211.008 83.2099 210.661 84.303C209.529 87.8847 210.846 94.2574 214.059 100.491C218.311 108.747 224.713 114.306 228.017 112.585C228.78 112.189 229.335 111.445 229.681 110.352C230.814 106.747 229.473 100.397 226.284 94.1644C222.54 86.9312 217.178 81.7679 213.666 81.7679Z" fill="#B9FF66"/>
<path d="M253.3 154.123C247.338 154.123 240.173 150.774 232.455 144.285C221.962 135.447 211.655 121.818 203.474 105.909C191.063 81.8143 185.956 57.0911 190.439 42.9271C191.942 38.1825 194.461 34.8799 197.904 33.089C205.808 29.0189 217.433 33.717 229.82 45.9739C230.028 46.1832 230.028 46.4856 229.82 46.6949C229.612 46.9042 229.311 46.9042 229.103 46.6949C217.04 34.7636 205.831 30.112 198.366 33.9961C195.177 35.6474 192.843 38.7407 191.41 43.2294C186.996 57.1377 192.08 81.5585 204.375 105.444C218.912 133.703 239.365 153.1 253.277 153.1C255.357 153.1 257.275 152.658 259.032 151.774C262.221 150.123 264.555 147.029 265.988 142.541C270.402 128.632 265.318 104.212 253.023 80.3258C249.302 73.1158 245.142 66.3478 240.659 60.231C240.497 59.9984 240.543 59.6728 240.774 59.51C241.005 59.3472 241.329 59.3937 241.491 59.6263C246.02 65.8129 250.203 72.6042 253.947 79.8606C266.358 103.956 271.465 128.679 266.982 142.843C265.48 147.588 262.961 150.89 259.517 152.681C257.622 153.635 255.542 154.123 253.3 154.123Z" fill="black"/>
<path d="M114.96 173.683C114.937 173.683 114.914 173.683 114.914 173.683L102.133 172.288C102.064 172.288 101.995 172.264 101.925 172.218C99.2908 171.799 95.9629 168.45 93.5362 163.752C90.9478 158.798 90.1852 153.96 91.5949 151.681L91.6181 151.611L98.2739 139.75C98.297 139.703 98.3201 139.68 98.3433 139.657L115.283 121.958C115.306 121.934 115.33 121.911 115.353 121.888L158.755 90.7222L186.21 32.6473C186.279 32.531 186.372 32.438 186.51 32.3915C186.649 32.3449 186.788 32.3449 186.903 32.4147C187.158 32.531 187.273 32.8334 187.158 33.0892C180.201 48.0905 185.702 77.9071 200.816 107.259C215.953 136.657 237.053 158.426 253.3 161.426C253.554 161.473 253.739 161.705 253.716 161.984C253.693 162.24 253.462 162.426 253.208 162.45L252.769 162.426C252.746 162.426 252.722 162.426 252.699 162.426L189.7 151.565L139.041 169.799C139.018 169.799 138.972 169.822 138.949 169.822L115.029 173.66C115.006 173.683 114.983 173.683 114.96 173.683ZM102.503 171.311L114.96 172.66L138.764 168.822L189.515 150.565C189.607 150.542 189.677 150.518 189.769 150.542L246.483 160.31C231.16 153.542 213.249 133.563 199.961 107.747C186.765 82.1168 180.871 56.0912 184.107 39.6479L159.656 91.2804C159.61 91.3502 159.563 91.42 159.494 91.4665L116.023 122.702L99.1521 140.308L92.4963 152.17C92.4963 152.193 92.4731 152.216 92.4731 152.216C91.2714 154.1 92.0803 158.752 94.4144 163.287C96.7024 167.729 100.007 171.078 102.272 171.241C102.365 171.241 102.434 171.264 102.503 171.311Z" fill="black"/>
<path d="M159.262 90.885L186.694 32.8565H186.718C179.9 47.5555 184.869 77.3489 200.376 107.491C215.929 137.68 237.33 159.007 253.23 161.938L252.791 161.915L189.768 151.053L188.312 150.797C180.986 149.495 171.21 139.913 164.208 126.237C157.02 112.212 155.749 98.2345 158.939 91.5827L159.262 90.885Z" fill="white"/>
<path d="M253.23 162.449C253.207 162.449 253.23 162.449 253.23 162.449L252.768 162.426C252.745 162.426 252.722 162.426 252.699 162.426L189.676 151.565L188.22 151.309C180.478 149.937 170.656 139.959 163.746 126.493C155.911 111.189 155.518 97.56 158.477 91.3734L158.823 90.6756L186.256 32.6705C186.325 32.5542 186.417 32.4611 186.556 32.4146C186.695 32.3681 186.833 32.3681 186.949 32.4379C187.203 32.5542 187.319 32.8565 187.203 33.1124C180.247 48.1137 185.747 77.9303 200.861 107.282C215.999 136.68 237.099 158.449 253.346 161.449C253.6 161.496 253.785 161.728 253.762 162.008C253.692 162.24 253.484 162.449 253.23 162.449ZM184.06 39.6478L159.724 91.1175L159.378 91.8153C156.443 97.9553 157.298 111.677 164.647 126.004C171.418 139.215 180.963 148.983 188.405 150.286L189.861 150.541L246.459 160.31C231.136 153.542 213.226 133.563 199.937 107.747C186.741 82.1167 180.848 56.0911 184.06 39.6478Z" fill="black"/>
<path d="M114.266 173.613C114.243 173.613 114.22 173.613 114.22 173.613L102.11 172.311C102.041 172.311 101.971 172.288 101.902 172.241C99.2674 171.822 95.9395 168.473 93.5129 163.775C90.9476 158.798 90.1849 153.96 91.5947 151.681L91.6178 151.611L98.2737 139.75C98.4123 139.494 98.7128 139.424 98.967 139.564C99.2212 139.703 99.2905 140.006 99.1519 140.261L92.496 152.169C92.496 152.193 92.4729 152.216 92.4729 152.216C91.2712 154.1 92.08 158.751 94.4142 163.287C96.7022 167.729 100.007 171.078 102.272 171.241C102.341 171.241 102.434 171.264 102.48 171.311L114.312 172.59C114.59 172.613 114.798 172.869 114.752 173.148C114.728 173.404 114.52 173.613 114.266 173.613Z" fill="black"/>
<path d="M115.075 173.102C111.146 172.823 105.646 167.217 101.648 159.473C97.4185 151.262 96.4247 142.773 99.0131 139.75L92.103 151.844L92.0568 151.937C90.7395 153.984 91.5022 158.705 93.975 163.519C96.4016 168.264 99.822 171.567 102.226 171.753L102.156 171.799L115.075 173.102Z" fill="white"/>
<path d="M115.075 173.613C115.052 173.613 115.052 173.613 115.029 173.613C114.936 173.613 114.821 173.59 114.728 173.59L102.11 172.311C102.041 172.311 101.971 172.288 101.902 172.241C99.2674 171.822 95.9395 168.473 93.5129 163.775C90.9476 158.798 90.1849 153.96 91.5947 151.681L91.6178 151.611L97.6959 140.959C97.927 140.354 98.2275 139.82 98.5972 139.378C98.759 139.168 99.0594 139.145 99.2674 139.285C99.4754 139.447 99.5448 139.727 99.4061 139.959L98.551 141.424C97.1875 145.122 98.5279 152.379 102.041 159.17C105.854 166.589 111.054 172.008 114.775 172.497L115.052 172.52C115.329 172.543 115.537 172.799 115.514 173.078C115.537 173.404 115.329 173.613 115.075 173.613ZM102.48 171.311L111.308 172.218C107.911 170.032 104.167 165.52 101.186 159.705C98.2968 154.1 96.8639 148.285 97.095 144.099L92.496 152.169C92.496 152.193 92.4729 152.216 92.4729 152.216C91.2712 154.1 92.08 158.751 94.4142 163.287C96.7022 167.729 100.007 171.078 102.272 171.241C102.341 171.241 102.434 171.264 102.48 171.311Z" fill="black"/>
<path d="M138 169.45L139.017 169.241C133.517 170.404 124.827 162.031 118.703 150.146C112.44 138.005 111.261 125.888 115.699 122.306L115.121 122.888L99.059 139.68C96.4244 142.657 97.3951 151.193 101.647 159.449C105.738 167.403 111.539 173.078 115.491 173.055L138 169.45Z" fill="black"/>
<path d="M115.468 173.59C111.262 173.59 105.415 167.892 101.186 159.705C96.8871 151.332 95.8009 142.587 98.6666 139.354L114.428 122.888C114.705 122.516 115.029 122.19 115.376 121.911C115.584 121.748 115.884 121.771 116.069 121.957C116.254 122.167 116.254 122.469 116.069 122.655L115.168 123.609C111.955 127.935 113.55 139.005 119.166 149.913C125.221 161.682 133.679 169.752 138.856 168.776L138.925 168.752C139.203 168.706 139.457 168.869 139.526 169.148C139.573 169.427 139.411 169.683 139.133 169.752C139.11 169.752 139.087 169.752 139.064 169.776L138.117 169.962H138.093L115.584 173.567C115.537 173.567 115.491 173.59 115.468 173.59ZM113.088 125.772L99.4293 140.052C96.8871 142.936 98.0427 151.355 102.11 159.24C106.085 166.961 111.701 172.543 115.468 172.567L135.343 169.38C129.982 167.473 123.372 160.286 118.264 150.402C113.411 140.982 111.539 131.4 113.088 125.772Z" fill="black"/>
<path d="M212.094 81.6282C208.466 83.4889 208.997 92.1175 213.619 100.723C221.362 115.12 227.532 113.422 228.249 113.166C228.272 113.166 228.272 113.189 228.249 113.189L214.96 123.958C211.054 118.445 207.333 112.305 203.913 105.677C200.654 99.3275 197.904 93.0013 195.732 86.8613L212.094 81.6282Z" fill="black"/>
<path d="M214.96 124.469C214.937 124.469 214.914 124.469 214.89 124.469C214.752 124.446 214.636 124.376 214.544 124.26C210.546 118.608 206.825 112.422 203.474 105.933C200.261 99.6997 197.488 93.3503 195.27 87.0707C195.223 86.9311 195.223 86.7916 195.293 86.6753C195.362 86.559 195.454 86.466 195.593 86.4194L211.955 81.1864C212.21 81.1166 212.487 81.2329 212.579 81.4888C212.672 81.7446 212.579 82.0237 212.348 82.14C211.563 82.5354 210.985 83.3261 210.638 84.489C209.506 88.1405 210.892 94.6062 214.105 100.537C221.662 114.585 227.486 112.98 228.11 112.747C228.341 112.654 228.618 112.771 228.734 112.98C228.849 113.189 228.803 113.492 228.618 113.654L215.283 124.353C215.191 124.423 215.075 124.469 214.96 124.469ZM196.402 87.187C198.597 93.2573 201.278 99.3973 204.375 105.444C207.611 111.724 211.216 117.701 215.075 123.213L226.608 113.864C223.973 113.747 219.004 111.771 213.18 100.956C209.806 94.6992 208.419 88.094 209.644 84.1169C209.806 83.6052 209.991 83.1633 210.222 82.7447L196.402 87.187Z" fill="black"/>
<path d="M280.47 48.4486C291.035 42.8652 295.121 29.7564 289.597 19.1694C284.073 8.58238 271.029 4.52621 260.464 10.1097C249.899 15.6932 245.813 28.8019 251.337 39.3889C256.861 49.9759 269.905 54.0321 280.47 48.4486Z" fill="black"/>
<path d="M267.378 25.0574C267.378 22.4451 264.974 20.7732 264.872 20.7067C264.717 20.6005 264.536 20.5438 264.35 20.5438C264.164 20.5438 263.982 20.6005 263.828 20.7067C263.725 20.7827 261.321 22.4451 261.321 25.0574C261.321 25.8762 261.64 26.6615 262.208 27.2405C262.776 27.8194 263.546 28.1447 264.35 28.1447C265.153 28.1447 265.923 27.8194 266.491 27.2405C267.059 26.6615 267.378 25.8762 267.378 25.0574ZM264.35 26.2448C264.041 26.2448 263.744 26.1197 263.526 25.897C263.307 25.6744 263.185 25.3723 263.185 25.0574C263.261 24.1568 263.679 23.322 264.35 22.7301C265.024 23.3188 265.443 24.1553 265.515 25.0574C265.515 25.3723 265.392 25.6744 265.173 25.897C264.955 26.1197 264.659 26.2448 264.35 26.2448ZM269.997 27.3563C269.843 27.2501 269.661 27.1933 269.475 27.1933C269.289 27.1933 269.108 27.2501 268.953 27.3563C268.795 27.4703 265.049 30.1111 265.049 34.0818C265.049 35.2785 265.515 36.4262 266.345 37.2724C267.175 38.1186 268.301 38.594 269.475 38.594C270.649 38.594 271.775 38.1186 272.605 37.2724C273.436 36.4262 273.902 35.2785 273.902 34.0818C273.902 30.0446 270.174 27.4608 269.997 27.3563ZM269.475 36.6941C269.139 36.6941 268.805 36.6265 268.495 36.4952C268.184 36.364 267.901 36.1715 267.663 35.929C267.425 35.6864 267.236 35.3984 267.108 35.0815C266.979 34.7645 266.912 34.4248 266.912 34.0818C266.912 31.8874 268.599 30.1206 269.485 29.3321C270.361 30.0826 272.038 31.8304 272.038 34.0818C272.038 34.4248 271.972 34.7645 271.843 35.0815C271.714 35.3984 271.526 35.6864 271.288 35.929C271.05 36.1715 270.767 36.364 270.456 36.4952C270.145 36.6265 269.812 36.6941 269.475 36.6941ZM275.822 19.7568C275.668 19.6506 275.486 19.5939 275.3 19.5939C275.114 19.5939 274.932 19.6506 274.778 19.7568C274.648 19.8518 271.572 22.0176 271.572 25.2949C271.572 26.3027 271.965 27.2691 272.664 27.9817C273.363 28.6943 274.311 29.0946 275.3 29.0946C276.289 29.0946 277.237 28.6943 277.936 27.9817C278.635 27.2691 279.028 26.3027 279.028 25.2949C279.028 21.9796 275.952 19.8423 275.822 19.7568ZM275.3 27.1948C274.806 27.1948 274.332 26.9946 273.982 26.6383C273.632 26.282 273.436 25.7988 273.436 25.2949C273.5 24.609 273.698 23.943 274.018 23.3361C274.338 22.7293 274.774 22.1938 275.3 21.7612C275.828 22.1919 276.265 22.727 276.586 23.3342C276.906 23.9414 277.103 24.6083 277.164 25.2949C277.164 25.7988 276.967 26.282 276.618 26.6383C276.268 26.9946 275.794 27.1948 275.3 27.1948Z" fill="white"/>
<path d="M336.388 54.1569C344.122 46.373 344.122 33.7529 336.388 25.969C328.653 18.1852 316.113 18.1852 308.378 25.969C300.644 33.7529 300.644 46.373 308.378 54.1569C316.113 61.9407 328.653 61.9407 336.388 54.1569Z" fill="#B9FF66"/>
<path d="M322.379 60.4985C311.194 60.4985 302.065 51.3349 302.065 40.0548C302.065 28.798 311.171 19.6111 322.379 19.6111C333.588 19.6111 342.694 28.7747 342.694 40.0548C342.694 51.3116 333.588 60.4985 322.379 60.4985ZM322.379 20.6345C311.749 20.6345 303.082 29.3329 303.082 40.0548C303.082 50.7534 311.725 59.4751 322.379 59.4751C333.01 59.4751 341.677 50.7767 341.677 40.0548C341.677 29.3562 333.033 20.6345 322.379 20.6345Z" fill="#B9FF66"/>
<path d="M325.452 43.9045H322.771L324.483 41.0178C324.561 40.8859 324.611 40.7404 324.631 40.5895C324.651 40.4386 324.64 40.2853 324.6 40.1384C324.559 39.9915 324.49 39.8539 324.395 39.7334C324.3 39.6128 324.181 39.5118 324.046 39.436C323.912 39.3602 323.763 39.3111 323.608 39.2915C323.454 39.2719 323.297 39.2823 323.147 39.322C322.997 39.3616 322.856 39.4298 322.733 39.5227C322.61 39.6156 322.506 39.7313 322.429 39.8632L319.701 44.4818C319.598 44.6573 319.543 44.8565 319.543 45.0591C319.543 45.2618 319.598 45.4609 319.701 45.6365C319.805 45.8127 319.955 45.9589 320.135 46.0603C320.316 46.1616 320.52 46.2146 320.728 46.2138H323.409L321.697 49.1004C321.54 49.3669 321.498 49.6832 321.58 49.9799C321.662 50.2765 321.861 50.5292 322.134 50.6823C322.406 50.8354 322.73 50.8764 323.033 50.7963C323.336 50.7162 323.595 50.5215 323.751 50.2551L326.479 45.6365C326.582 45.4609 326.637 45.2618 326.637 45.0591C326.637 44.8565 326.582 44.6573 326.479 44.4818C326.375 44.3056 326.225 44.1594 326.045 44.058C325.864 43.9566 325.66 43.9037 325.452 43.9045ZM331.261 34.9097C330.539 33.2884 329.293 31.9434 327.714 31.0811C326.135 30.2187 324.31 29.8866 322.52 30.1356C320.729 30.3846 319.071 31.201 317.801 32.4596C316.53 33.7182 315.717 35.3496 315.486 37.1036C314.36 37.3672 313.372 38.0259 312.711 38.9547C312.049 39.8834 311.759 41.0175 311.896 42.1416C312.033 43.2656 312.587 44.3013 313.454 45.0521C314.32 45.8028 315.438 46.2162 316.596 46.2138C316.909 46.2138 317.209 46.0922 317.431 45.8756C317.652 45.6591 317.777 45.3654 317.777 45.0591C317.777 44.7529 317.652 44.4592 317.431 44.2427C317.209 44.0261 316.909 43.9045 316.596 43.9045C315.969 43.9045 315.369 43.6612 314.926 43.2281C314.483 42.795 314.234 42.2076 314.234 41.5952C314.234 40.9827 314.483 40.3953 314.926 39.9622C315.369 39.5292 315.969 39.2859 316.596 39.2859C316.909 39.2859 317.209 39.1642 317.431 38.9477C317.652 38.7311 317.777 38.4374 317.777 38.1312C317.78 36.7656 318.278 35.4452 319.182 34.4046C320.086 33.3641 321.339 32.6708 322.717 32.4478C324.094 32.2249 325.508 32.4868 326.707 33.187C327.906 33.8872 328.813 34.9803 329.265 36.2722C329.335 36.4685 329.457 36.6428 329.619 36.777C329.781 36.9111 329.977 37 330.186 37.0343C331.052 37.1905 331.827 37.6561 332.361 38.3405C332.894 39.0249 333.148 39.8791 333.073 40.7366C332.998 41.5941 332.599 42.3935 331.954 42.9791C331.309 43.5648 330.464 43.8946 329.584 43.9045C329.271 43.9045 328.971 44.0261 328.749 44.2427C328.528 44.4592 328.404 44.7529 328.404 45.0591C328.404 45.3654 328.528 45.6591 328.749 45.8756C328.971 46.0922 329.271 46.2138 329.584 46.2138C331 46.21 332.368 45.7085 333.438 44.8008C334.507 43.8932 335.207 42.6398 335.411 41.2693C335.614 39.8988 335.307 38.5025 334.545 37.335C333.783 36.1676 332.618 35.3068 331.261 34.9097Z" fill="#1B1B1B"/>
<path d="M322.874 61.1566C320.688 61.1566 318.46 60.8171 316.295 60.0745C310.998 58.2922 306.709 54.5578 304.229 49.508C301.749 44.4794 301.37 38.7718 303.157 33.4249C306.857 22.4128 318.754 16.4082 329.705 20.0789C335.002 21.8611 339.29 25.5955 341.771 30.6453C344.251 35.674 344.63 41.3816 342.843 46.7285C339.858 55.5551 331.639 61.1566 322.874 61.1566ZM323.084 19.9515C314.697 19.9515 306.836 25.2984 303.998 33.7431C302.295 38.8566 302.653 44.3096 305.028 49.1049C307.403 53.9213 311.502 57.5071 316.568 59.2045C327.036 62.7055 338.408 56.9767 341.939 46.4526C343.642 41.3391 343.284 35.8861 340.909 31.0909C338.534 26.2745 334.435 22.6886 329.369 20.9912C327.288 20.2698 325.165 19.9515 323.084 19.9515Z" fill="black"/>
<path d="M332.022 112.809C341.092 106.473 343.371 93.9806 337.112 84.9058C330.853 75.8309 318.427 73.6102 309.357 79.9456C300.287 86.2811 298.008 98.7736 304.267 107.848C310.526 116.923 322.953 119.144 332.022 112.809Z" fill="black"/>
<path d="M311.428 92.8233C311.65 92.8233 311.866 92.7575 312.05 92.6343C312.234 92.511 312.377 92.3359 312.462 92.1309C312.546 91.926 312.568 91.7005 312.525 91.483C312.482 91.2654 312.376 91.0656 312.219 90.9087C312.063 90.7519 311.864 90.645 311.647 90.6018C311.43 90.5585 311.205 90.5807 311 90.6656C310.796 90.7505 310.621 90.8942 310.499 91.0787C310.376 91.2631 310.31 91.4799 310.31 91.7018C310.31 91.9992 310.428 92.2845 310.638 92.4948C310.847 92.7051 311.132 92.8233 311.428 92.8233ZM315.902 92.8233H323.73C324.62 92.8233 325.473 92.4688 326.102 91.8378C326.732 91.2068 327.085 90.351 327.085 89.4587C327.085 88.5663 326.732 87.7105 326.102 87.0796C325.473 86.4486 324.62 86.0941 323.73 86.0941C323.142 86.0965 322.564 86.251 322.053 86.5427C321.924 86.616 321.812 86.7139 321.722 86.831C321.632 86.948 321.565 87.0818 321.527 87.2246C321.488 87.3674 321.478 87.5164 321.498 87.6631C321.517 87.8098 321.565 87.9512 321.639 88.0792C321.713 88.2068 321.811 88.3185 321.928 88.4078C322.045 88.4972 322.179 88.5625 322.321 88.6C322.464 88.6375 322.612 88.6465 322.758 88.6264C322.904 88.6063 323.044 88.5576 323.171 88.483C323.343 88.3901 323.535 88.3401 323.73 88.3372C324.027 88.3372 324.311 88.4553 324.521 88.6656C324.731 88.876 324.848 89.1612 324.848 89.4587C324.848 89.7561 324.731 90.0414 324.521 90.2517C324.311 90.4621 324.027 90.5802 323.73 90.5802H315.902C315.605 90.5802 315.321 90.6984 315.111 90.9087C314.901 91.119 314.783 91.4043 314.783 91.7018C314.783 91.9992 314.901 92.2845 315.111 92.4948C315.321 92.7051 315.605 92.8233 315.902 92.8233ZM311.428 97.3094H319.257C319.553 97.3094 319.838 97.1913 320.048 96.9809C320.257 96.7706 320.375 96.4853 320.375 96.1879C320.375 95.8904 320.257 95.6052 320.048 95.3948C319.838 95.1845 319.553 95.0664 319.257 95.0664H311.428C311.132 95.0664 310.847 95.1845 310.638 95.3948C310.428 95.6052 310.31 95.8904 310.31 96.1879C310.31 96.4853 310.428 96.7706 310.638 96.9809C310.847 97.1913 311.132 97.3094 311.428 97.3094ZM330.44 92.8233C330.661 92.8233 330.877 92.7575 331.061 92.6343C331.245 92.511 331.389 92.3359 331.473 92.1309C331.558 91.926 331.58 91.7005 331.537 91.483C331.494 91.2654 331.387 91.0656 331.231 90.9087C331.074 90.7519 330.875 90.645 330.658 90.6018C330.441 90.5585 330.216 90.5807 330.012 90.6656C329.808 90.7505 329.633 90.8942 329.51 91.0787C329.387 91.2631 329.322 91.4799 329.322 91.7018C329.322 91.9992 329.44 92.2845 329.649 92.4948C329.859 92.7051 330.143 92.8233 330.44 92.8233ZM328.203 95.0664H323.73C323.433 95.0664 323.149 95.1845 322.939 95.3948C322.73 95.6052 322.612 95.8904 322.612 96.1879C322.612 96.4853 322.73 96.7706 322.939 96.9809C323.149 97.1913 323.433 97.3094 323.73 97.3094H328.203C328.5 97.3094 328.784 97.4276 328.994 97.6379C329.204 97.8482 329.322 98.1335 329.322 98.431C329.322 98.7284 329.204 99.0137 328.994 99.224C328.784 99.4343 328.5 99.5525 328.203 99.5525C327.907 99.5525 327.622 99.6706 327.413 99.881C327.203 100.091 327.085 100.377 327.085 100.674C327.085 100.971 327.203 101.257 327.413 101.467C327.622 101.677 327.907 101.796 328.203 101.796C329.093 101.796 329.947 101.441 330.576 100.81C331.205 100.179 331.558 99.3233 331.558 98.431C331.558 97.5386 331.205 96.6828 330.576 96.0518C329.947 95.4208 329.093 95.0664 328.203 95.0664ZM321.493 99.5525H317.02C316.723 99.5525 316.439 99.6706 316.229 99.881C316.02 100.091 315.902 100.377 315.902 100.674C315.902 100.971 316.02 101.257 316.229 101.467C316.439 101.677 316.723 101.796 317.02 101.796H321.493C321.79 101.796 322.074 101.914 322.284 102.124C322.494 102.334 322.612 102.62 322.612 102.917C322.612 103.215 322.494 103.5 322.284 103.71C322.074 103.92 321.79 104.039 321.493 104.039C321.298 104.036 321.106 103.986 320.934 103.893C320.807 103.812 320.665 103.757 320.516 103.733C320.367 103.708 320.215 103.714 320.068 103.75C319.922 103.786 319.784 103.851 319.663 103.942C319.543 104.033 319.442 104.147 319.366 104.278C319.291 104.409 319.242 104.554 319.224 104.704C319.206 104.854 319.218 105.007 319.26 105.152C319.302 105.297 319.373 105.432 319.469 105.549C319.564 105.666 319.682 105.763 319.816 105.833C320.327 106.125 320.905 106.279 321.493 106.282C322.383 106.282 323.237 105.927 323.866 105.296C324.495 104.665 324.848 103.809 324.848 102.917C324.848 102.025 324.495 101.169 323.866 100.538C323.237 99.907 322.383 99.5525 321.493 99.5525ZM312.547 99.5525H311.428C311.132 99.5525 310.847 99.6706 310.638 99.881C310.428 100.091 310.31 100.377 310.31 100.674C310.31 100.971 310.428 101.257 310.638 101.467C310.847 101.677 311.132 101.796 311.428 101.796H312.547C312.843 101.796 313.128 101.677 313.338 101.467C313.547 101.257 313.665 100.971 313.665 100.674C313.665 100.377 313.547 100.091 313.338 99.881C313.128 99.6706 312.843 99.5525 312.547 99.5525Z" fill="white"/>
<path d="M320.494 177.877C331.695 172.39 336.381 158.86 330.962 147.658C325.543 136.455 312.071 131.822 300.87 137.31C289.67 142.797 284.983 156.327 290.402 167.529C295.821 178.732 309.294 183.365 320.494 177.877Z" fill="#B9FF66"/>
<path d="M310.568 180.707C308.165 180.707 305.715 180.335 303.334 179.521C297.511 177.567 292.796 173.473 290.069 167.938C287.342 162.426 286.926 156.17 288.89 150.309C292.958 138.238 306.038 131.656 318.079 135.679C323.903 137.633 328.618 141.726 331.345 147.262C334.072 152.774 334.488 159.03 332.523 164.891C329.242 174.567 320.205 180.707 310.568 180.707ZM310.799 135.54C301.578 135.54 292.935 141.401 289.815 150.657C287.943 156.263 288.336 162.24 290.947 167.496C293.559 172.776 298.065 176.706 303.635 178.567C315.144 182.405 327.647 176.125 331.529 164.589C333.401 158.984 333.009 153.007 330.397 147.75C327.786 142.471 323.279 138.54 317.709 136.68C315.421 135.889 313.087 135.54 310.799 135.54Z" fill="black"/>
<path d="M320.336 154.354C320.148 159.049 312.39 170.021 310.54 172.591C310.351 172.861 309.955 172.842 309.785 172.552C308.615 170.62 304.745 164.129 302.725 158.875C301.914 156.789 301.404 154.895 301.461 153.562C301.668 148.231 306.066 144.077 311.276 144.29C316.486 144.541 320.544 149.023 320.336 154.354Z" fill="black"/>
<path d="M314.353 157.241C316.42 155.162 316.42 151.789 314.353 149.709C312.286 147.629 308.935 147.629 306.868 149.709C304.802 151.789 304.802 155.162 306.868 157.241C308.935 159.321 312.286 159.321 314.353 157.241Z" fill="#B9FF66"/>
<defs>
<clipPath id="clip0_30_2104">
<rect width="21.2483" height="21.3751" fill="white" transform="translate(172.938 253.533)"/>
</clipPath>
<clipPath id="clip1_30_2104">
<rect width="41.6326" height="41.6326" fill="white" transform="matrix(0.705001 0.709207 -0.705001 0.709207 63.5845 185.845)"/>
</clipPath>
</defs>
</svg>
