<svg width="210" height="46" viewBox="0 0 210 46" fill="none" xmlns="http://www.w3.org/2000/svg">
<path d="M63.1455 35.504C61.2015 35.504 59.4855 35.156 57.9975 34.46C56.5095 33.764 55.3455 32.768 54.5055 31.472C53.6655 30.176 53.2455 28.616 53.2455 26.792V25.784H57.9255V26.792C57.9255 28.304 58.3935 29.444 59.3295 30.212C60.2655 30.956 61.5375 31.328 63.1455 31.328C64.7775 31.328 65.9895 31.004 66.7815 30.356C67.5975 29.708 68.0055 28.88 68.0055 27.872C68.0055 27.176 67.8015 26.612 67.3935 26.18C67.0095 25.748 66.4335 25.4 65.6655 25.136C64.9215 24.848 64.0095 24.584 62.9295 24.344L62.1015 24.164C60.3735 23.78 58.8855 23.3 57.6375 22.724C56.4135 22.124 55.4655 21.344 54.7935 20.384C54.1455 19.424 53.8215 18.176 53.8215 16.64C53.8215 15.104 54.1815 13.796 54.9015 12.716C55.6455 11.612 56.6775 10.772 57.9975 10.196C59.3415 9.596 60.9135 9.296 62.7135 9.296C64.5135 9.296 66.1095 9.608 67.5015 10.232C68.9175 10.832 70.0215 11.744 70.8135 12.968C71.6295 14.168 72.0375 15.68 72.0375 17.504V18.584H67.3575V17.504C67.3575 16.544 67.1655 15.776 66.7815 15.2C66.4215 14.6 65.8935 14.168 65.1975 13.904C64.5015 13.616 63.6735 13.472 62.7135 13.472C61.2735 13.472 60.2055 13.748 59.5095 14.3C58.8375 14.828 58.5015 15.56 58.5015 16.496C58.5015 17.12 58.6575 17.648 58.9695 18.08C59.3055 18.512 59.7975 18.872 60.4455 19.16C61.0935 19.448 61.9215 19.7 62.9295 19.916L63.7575 20.096C65.5575 20.48 67.1175 20.972 68.4375 21.572C69.7815 22.172 70.8255 22.964 71.5695 23.948C72.3135 24.932 72.6855 26.192 72.6855 27.728C72.6855 29.264 72.2895 30.62 71.4975 31.796C70.7295 32.948 69.6255 33.86 68.1855 34.532C66.7695 35.18 65.0895 35.504 63.1455 35.504ZM83.2135 35C82.0375 35 81.0775 34.64 80.3335 33.92C79.6135 33.176 79.2535 32.192 79.2535 30.968V20.888H74.7895V17.144H79.2535V11.6H83.7895V17.144H88.6855V20.888H83.7895V30.176C83.7895 30.896 84.1255 31.256 84.7975 31.256H88.2535V35H83.2135ZM98.3355 35.504C97.0635 35.504 95.9235 35.288 94.9155 34.856C93.9075 34.4 93.1035 33.752 92.5035 32.912C91.9275 32.048 91.6395 31.004 91.6395 29.78C91.6395 28.556 91.9275 27.536 92.5035 26.72C93.1035 25.88 93.9195 25.256 94.9515 24.848C96.0075 24.416 97.2075 24.2 98.5515 24.2H103.447V23.192C103.447 22.352 103.183 21.668 102.655 21.14C102.127 20.588 101.287 20.312 100.135 20.312C99.0075 20.312 98.1675 20.576 97.6155 21.104C97.0635 21.608 96.7035 22.268 96.5355 23.084L92.3595 21.68C92.6475 20.768 93.1035 19.94 93.7275 19.196C94.3755 18.428 95.2275 17.816 96.2835 17.36C97.3635 16.88 98.6715 16.64 100.207 16.64C102.559 16.64 104.419 17.228 105.787 18.404C107.155 19.58 107.839 21.284 107.839 23.516V30.176C107.839 30.896 108.175 31.256 108.847 31.256H110.287V35H107.263C106.375 35 105.643 34.784 105.067 34.352C104.491 33.92 104.203 33.344 104.203 32.624V32.588H103.519C103.423 32.876 103.207 33.26 102.871 33.74C102.535 34.196 102.007 34.604 101.287 34.964C100.567 35.324 99.5835 35.504 98.3355 35.504ZM99.1275 31.832C100.399 31.832 101.431 31.484 102.223 30.788C103.039 30.068 103.447 29.12 103.447 27.944V27.584H98.8755C98.0355 27.584 97.3755 27.764 96.8955 28.124C96.4155 28.484 96.1755 28.988 96.1755 29.636C96.1755 30.284 96.4275 30.812 96.9315 31.22C97.4355 31.628 98.1675 31.832 99.1275 31.832ZM115.056 42.2V38.24H124.776C125.448 38.24 125.784 37.88 125.784 37.16V32.66H125.136C124.944 33.068 124.644 33.476 124.236 33.884C123.828 34.292 123.276 34.628 122.58 34.892C121.884 35.156 120.996 35.288 119.916 35.288C118.524 35.288 117.3 34.976 116.244 34.352C115.212 33.704 114.408 32.816 113.832 31.688C113.256 30.56 112.968 29.264 112.968 27.8V17.144H117.504V27.44C117.504 28.784 117.828 29.792 118.476 30.464C119.148 31.136 120.096 31.472 121.32 31.472C122.712 31.472 123.792 31.016 124.56 30.104C125.328 29.168 125.712 27.872 125.712 26.216V17.144H130.248V38.168C130.248 39.392 129.888 40.364 129.168 41.084C128.448 41.828 127.488 42.2 126.288 42.2H115.056ZM143.899 35.504C141.955 35.504 140.239 35.156 138.751 34.46C137.263 33.764 136.099 32.768 135.259 31.472C134.419 30.176 133.999 28.616 133.999 26.792V25.784H138.679V26.792C138.679 28.304 139.147 29.444 140.083 30.212C141.019 30.956 142.291 31.328 143.899 31.328C145.531 31.328 146.743 31.004 147.535 30.356C148.351 29.708 148.759 28.88 148.759 27.872C148.759 27.176 148.555 26.612 148.147 26.18C147.763 25.748 147.187 25.4 146.419 25.136C145.675 24.848 144.763 24.584 143.683 24.344L142.855 24.164C141.127 23.78 139.639 23.3 138.391 22.724C137.167 22.124 136.219 21.344 135.547 20.384C134.899 19.424 134.575 18.176 134.575 16.64C134.575 15.104 134.935 13.796 135.655 12.716C136.399 11.612 137.431 10.772 138.751 10.196C140.095 9.596 141.667 9.296 143.467 9.296C145.267 9.296 146.863 9.608 148.255 10.232C149.671 10.832 150.775 11.744 151.567 12.968C152.383 14.168 152.791 15.68 152.791 17.504V18.584H148.111V17.504C148.111 16.544 147.919 15.776 147.535 15.2C147.175 14.6 146.647 14.168 145.951 13.904C145.255 13.616 144.427 13.472 143.467 13.472C142.027 13.472 140.959 13.748 140.263 14.3C139.591 14.828 139.255 15.56 139.255 16.496C139.255 17.12 139.411 17.648 139.723 18.08C140.059 18.512 140.551 18.872 141.199 19.16C141.847 19.448 142.675 19.7 143.683 19.916L144.511 20.096C146.311 20.48 147.871 20.972 149.191 21.572C150.535 22.172 151.579 22.964 152.323 23.948C153.067 24.932 153.439 26.192 153.439 27.728C153.439 29.264 153.043 30.62 152.251 31.796C151.483 32.948 150.379 33.86 148.939 34.532C147.523 35.18 145.843 35.504 143.899 35.504ZM162.671 35.504C161.399 35.504 160.259 35.288 159.251 34.856C158.243 34.4 157.439 33.752 156.839 32.912C156.263 32.048 155.975 31.004 155.975 29.78C155.975 28.556 156.263 27.536 156.839 26.72C157.439 25.88 158.255 25.256 159.287 24.848C160.343 24.416 161.543 24.2 162.887 24.2H167.783V23.192C167.783 22.352 167.519 21.668 166.991 21.14C166.463 20.588 165.623 20.312 164.471 20.312C163.343 20.312 162.503 20.576 161.951 21.104C161.399 21.608 161.039 22.268 160.871 23.084L156.695 21.68C156.983 20.768 157.439 19.94 158.063 19.196C158.711 18.428 159.563 17.816 160.619 17.36C161.699 16.88 163.007 16.64 164.543 16.64C166.895 16.64 168.755 17.228 170.123 18.404C171.491 19.58 172.175 21.284 172.175 23.516V30.176C172.175 30.896 172.511 31.256 173.183 31.256H174.623V35H171.599C170.711 35 169.979 34.784 169.403 34.352C168.827 33.92 168.539 33.344 168.539 32.624V32.588H167.855C167.759 32.876 167.543 33.26 167.207 33.74C166.871 34.196 166.343 34.604 165.623 34.964C164.903 35.324 163.919 35.504 162.671 35.504ZM163.463 31.832C164.735 31.832 165.767 31.484 166.559 30.788C167.375 30.068 167.783 29.12 167.783 27.944V27.584H163.211C162.371 27.584 161.711 27.764 161.231 28.124C160.751 28.484 160.511 28.988 160.511 29.636C160.511 30.284 160.763 30.812 161.267 31.22C161.771 31.628 162.503 31.832 163.463 31.832ZM179.591 35V20.888H175.055V17.144H179.591V13.832C179.591 12.608 179.951 11.636 180.671 10.916C181.415 10.172 182.375 9.8 183.551 9.8H188.231V13.544H185.135C184.463 13.544 184.127 13.904 184.127 14.624V17.144H188.807V20.888H184.127V35H179.591ZM199.857 35.504C198.081 35.504 196.509 35.132 195.141 34.388C193.797 33.62 192.741 32.552 191.973 31.184C191.229 29.792 190.857 28.16 190.857 26.288V25.856C190.857 23.984 191.229 22.364 191.973 20.996C192.717 19.604 193.761 18.536 195.105 17.792C196.449 17.024 198.009 16.64 199.785 16.64C201.537 16.64 203.061 17.036 204.357 17.828C205.653 18.596 206.661 19.676 207.381 21.068C208.101 22.436 208.461 24.032 208.461 25.856V27.404H195.465C195.513 28.628 195.969 29.624 196.833 30.392C197.697 31.16 198.753 31.544 200.001 31.544C201.273 31.544 202.209 31.268 202.809 30.716C203.409 30.164 203.865 29.552 204.177 28.88L207.885 30.824C207.549 31.448 207.057 32.132 206.409 32.876C205.785 33.596 204.945 34.22 203.889 34.748C202.833 35.252 201.489 35.504 199.857 35.504ZM195.501 24.02H203.853C203.757 22.988 203.337 22.16 202.593 21.536C201.873 20.912 200.925 20.6 199.749 20.6C198.525 20.6 197.553 20.912 196.833 21.536C196.113 22.16 195.669 22.988 195.501 24.02Z" fill="black"/>
<g clip-path="url(#clip0_30_2236)">
<path d="M19.6122 8.88989L39.169 2.84003L33.4626 23.4328L39.169 43.9675L19.6122 37.9758L0 43.9675L5.76177 23.4328L0 2.84003L19.6122 8.88989Z" fill="black"/>
</g>
<defs>
<clipPath id="clip0_30_2236">
<rect width="40" height="42" fill="white" transform="translate(0 2)"/>
</clipPath>
</defs>
</svg>
