<svg width="156" height="34" viewBox="0 0 156 34" fill="none" xmlns="http://www.w3.org/2000/svg">
<path d="M10.1455 26.504C8.20148 26.504 6.48548 26.156 4.99748 25.46C3.50948 24.764 2.34548 23.768 1.50548 22.472C0.665484 21.176 0.245484 19.616 0.245484 17.792V16.784H4.92548V17.792C4.92548 19.304 5.39348 20.444 6.32948 21.212C7.26548 21.956 8.53748 22.328 10.1455 22.328C11.7775 22.328 12.9895 22.004 13.7815 21.356C14.5975 20.708 15.0055 19.88 15.0055 18.872C15.0055 18.176 14.8015 17.612 14.3935 17.18C14.0095 16.748 13.4335 16.4 12.6655 16.136C11.9215 15.848 11.0095 15.584 9.92948 15.344L9.10148 15.164C7.37348 14.78 5.88548 14.3 4.63748 13.724C3.41348 13.124 2.46548 12.344 1.79348 11.384C1.14548 10.424 0.821484 9.176 0.821484 7.64C0.821484 6.104 1.18148 4.796 1.90148 3.716C2.64548 2.612 3.67748 1.772 4.99748 1.196C6.34148 0.595999 7.91349 0.295998 9.71349 0.295998C11.5135 0.295998 13.1095 0.607999 14.5015 1.232C15.9175 1.832 17.0215 2.744 17.8135 3.968C18.6295 5.168 19.0375 6.68 19.0375 8.504V9.584H14.3575V8.504C14.3575 7.544 14.1655 6.776 13.7815 6.2C13.4215 5.6 12.8935 5.168 12.1975 4.904C11.5015 4.616 10.6735 4.472 9.71349 4.472C8.27349 4.472 7.20548 4.748 6.50948 5.3C5.83748 5.828 5.50148 6.56 5.50148 7.496C5.50148 8.12 5.65748 8.648 5.96948 9.08C6.30548 9.512 6.79748 9.872 7.44548 10.16C8.09348 10.448 8.92148 10.7 9.92948 10.916L10.7575 11.096C12.5575 11.48 14.1175 11.972 15.4375 12.572C16.7815 13.172 17.8255 13.964 18.5695 14.948C19.3135 15.932 19.6855 17.192 19.6855 18.728C19.6855 20.264 19.2895 21.62 18.4975 22.796C17.7295 23.948 16.6255 24.86 15.1855 25.532C13.7695 26.18 12.0895 26.504 10.1455 26.504ZM30.2135 26C29.0375 26 28.0775 25.64 27.3335 24.92C26.6135 24.176 26.2535 23.192 26.2535 21.968V11.888H21.7895V8.144H26.2535V2.6H30.7895V8.144H35.6855V11.888H30.7895V21.176C30.7895 21.896 31.1255 22.256 31.7975 22.256H35.2535V26H30.2135ZM45.3355 26.504C44.0635 26.504 42.9235 26.288 41.9155 25.856C40.9075 25.4 40.1035 24.752 39.5035 23.912C38.9275 23.048 38.6395 22.004 38.6395 20.78C38.6395 19.556 38.9275 18.536 39.5035 17.72C40.1035 16.88 40.9195 16.256 41.9515 15.848C43.0075 15.416 44.2075 15.2 45.5515 15.2H50.4475V14.192C50.4475 13.352 50.1835 12.668 49.6555 12.14C49.1275 11.588 48.2875 11.312 47.1355 11.312C46.0075 11.312 45.1675 11.576 44.6155 12.104C44.0635 12.608 43.7035 13.268 43.5355 14.084L39.3595 12.68C39.6475 11.768 40.1035 10.94 40.7275 10.196C41.3755 9.428 42.2275 8.816 43.2835 8.36C44.3635 7.88 45.6715 7.64 47.2075 7.64C49.5595 7.64 51.4195 8.228 52.7875 9.404C54.1555 10.58 54.8395 12.284 54.8395 14.516V21.176C54.8395 21.896 55.1755 22.256 55.8475 22.256H57.2875V26H54.2635C53.3755 26 52.6435 25.784 52.0675 25.352C51.4915 24.92 51.2035 24.344 51.2035 23.624V23.588H50.5195C50.4235 23.876 50.2075 24.26 49.8715 24.74C49.5355 25.196 49.0075 25.604 48.2875 25.964C47.5675 26.324 46.5835 26.504 45.3355 26.504ZM46.1275 22.832C47.3995 22.832 48.4315 22.484 49.2235 21.788C50.0395 21.068 50.4475 20.12 50.4475 18.944V18.584H45.8755C45.0355 18.584 44.3755 18.764 43.8955 19.124C43.4155 19.484 43.1755 19.988 43.1755 20.636C43.1755 21.284 43.4275 21.812 43.9315 22.22C44.4355 22.628 45.1675 22.832 46.1275 22.832ZM62.0558 33.2V29.24H71.7758C72.4478 29.24 72.7838 28.88 72.7838 28.16V23.66H72.1358C71.9438 24.068 71.6438 24.476 71.2358 24.884C70.8278 25.292 70.2758 25.628 69.5798 25.892C68.8838 26.156 67.9958 26.288 66.9158 26.288C65.5238 26.288 64.2998 25.976 63.2438 25.352C62.2118 24.704 61.4078 23.816 60.8318 22.688C60.2558 21.56 59.9678 20.264 59.9678 18.8V8.144H64.5038V18.44C64.5038 19.784 64.8278 20.792 65.4758 21.464C66.1478 22.136 67.0958 22.472 68.3198 22.472C69.7118 22.472 70.7918 22.016 71.5598 21.104C72.3278 20.168 72.7118 18.872 72.7118 17.216V8.144H77.2478V29.168C77.2478 30.392 76.8878 31.364 76.1678 32.084C75.4478 32.828 74.4878 33.2 73.2878 33.2H62.0558ZM90.8994 26.504C88.9554 26.504 87.2394 26.156 85.7514 25.46C84.2634 24.764 83.0994 23.768 82.2594 22.472C81.4194 21.176 80.9994 19.616 80.9994 17.792V16.784H85.6794V17.792C85.6794 19.304 86.1474 20.444 87.0834 21.212C88.0194 21.956 89.2914 22.328 90.8994 22.328C92.5314 22.328 93.7434 22.004 94.5354 21.356C95.3514 20.708 95.7594 19.88 95.7594 18.872C95.7594 18.176 95.5554 17.612 95.1474 17.18C94.7634 16.748 94.1874 16.4 93.4194 16.136C92.6754 15.848 91.7634 15.584 90.6834 15.344L89.8554 15.164C88.1274 14.78 86.6394 14.3 85.3914 13.724C84.1674 13.124 83.2194 12.344 82.5474 11.384C81.8994 10.424 81.5754 9.176 81.5754 7.64C81.5754 6.104 81.9354 4.796 82.6554 3.716C83.3994 2.612 84.4314 1.772 85.7514 1.196C87.0954 0.595999 88.6674 0.295998 90.4674 0.295998C92.2674 0.295998 93.8634 0.607999 95.2554 1.232C96.6714 1.832 97.7754 2.744 98.5674 3.968C99.3834 5.168 99.7914 6.68 99.7914 8.504V9.584H95.1114V8.504C95.1114 7.544 94.9194 6.776 94.5354 6.2C94.1754 5.6 93.6474 5.168 92.9514 4.904C92.2554 4.616 91.4274 4.472 90.4674 4.472C89.0274 4.472 87.9594 4.748 87.2634 5.3C86.5914 5.828 86.2554 6.56 86.2554 7.496C86.2554 8.12 86.4114 8.648 86.7234 9.08C87.0594 9.512 87.5514 9.872 88.1994 10.16C88.8474 10.448 89.6754 10.7 90.6834 10.916L91.5114 11.096C93.3114 11.48 94.8714 11.972 96.1914 12.572C97.5354 13.172 98.5794 13.964 99.3234 14.948C100.067 15.932 100.439 17.192 100.439 18.728C100.439 20.264 100.043 21.62 99.2514 22.796C98.4834 23.948 97.3794 24.86 95.9394 25.532C94.5234 26.18 92.8434 26.504 90.8994 26.504ZM109.671 26.504C108.399 26.504 107.259 26.288 106.251 25.856C105.243 25.4 104.439 24.752 103.839 23.912C103.263 23.048 102.975 22.004 102.975 20.78C102.975 19.556 103.263 18.536 103.839 17.72C104.439 16.88 105.255 16.256 106.287 15.848C107.343 15.416 108.543 15.2 109.887 15.2H114.783V14.192C114.783 13.352 114.519 12.668 113.991 12.14C113.463 11.588 112.623 11.312 111.471 11.312C110.343 11.312 109.503 11.576 108.951 12.104C108.399 12.608 108.039 13.268 107.871 14.084L103.695 12.68C103.983 11.768 104.439 10.94 105.063 10.196C105.711 9.428 106.563 8.816 107.619 8.36C108.699 7.88 110.007 7.64 111.543 7.64C113.895 7.64 115.755 8.228 117.123 9.404C118.491 10.58 119.175 12.284 119.175 14.516V21.176C119.175 21.896 119.511 22.256 120.183 22.256H121.623V26H118.599C117.711 26 116.979 25.784 116.403 25.352C115.827 24.92 115.539 24.344 115.539 23.624V23.588H114.855C114.759 23.876 114.543 24.26 114.207 24.74C113.871 25.196 113.343 25.604 112.623 25.964C111.903 26.324 110.919 26.504 109.671 26.504ZM110.463 22.832C111.735 22.832 112.767 22.484 113.559 21.788C114.375 21.068 114.783 20.12 114.783 18.944V18.584H110.211C109.371 18.584 108.711 18.764 108.231 19.124C107.751 19.484 107.511 19.988 107.511 20.636C107.511 21.284 107.763 21.812 108.267 22.22C108.771 22.628 109.503 22.832 110.463 22.832ZM126.591 26V11.888H122.055V8.144H126.591V4.832C126.591 3.608 126.951 2.636 127.671 1.916C128.415 1.172 129.375 0.799998 130.551 0.799998H135.231V4.544H132.135C131.463 4.544 131.127 4.904 131.127 5.624V8.144H135.807V11.888H131.127V26H126.591ZM146.857 26.504C145.081 26.504 143.509 26.132 142.141 25.388C140.797 24.62 139.741 23.552 138.973 22.184C138.229 20.792 137.857 19.16 137.857 17.288V16.856C137.857 14.984 138.229 13.364 138.973 11.996C139.717 10.604 140.761 9.536 142.105 8.792C143.449 8.024 145.009 7.64 146.785 7.64C148.537 7.64 150.061 8.036 151.357 8.828C152.653 9.596 153.661 10.676 154.381 12.068C155.101 13.436 155.461 15.032 155.461 16.856V18.404H142.465C142.513 19.628 142.969 20.624 143.833 21.392C144.697 22.16 145.753 22.544 147.001 22.544C148.273 22.544 149.209 22.268 149.809 21.716C150.409 21.164 150.865 20.552 151.177 19.88L154.885 21.824C154.549 22.448 154.057 23.132 153.409 23.876C152.785 24.596 151.945 25.22 150.889 25.748C149.833 26.252 148.489 26.504 146.857 26.504ZM142.501 15.02H150.853C150.757 13.988 150.337 13.16 149.593 12.536C148.873 11.912 147.925 11.6 146.749 11.6C145.525 11.6 144.553 11.912 143.833 12.536C143.113 13.16 142.669 13.988 142.501 15.02Z" fill="black"/>
</svg>
